<svg width="512" height="512" viewBox="0 0 512 512" xmlns="http://www.w3.org/2000/svg">
  <defs>
    <linearGradient id="mainGradient" x1="20%" y1="80%" x2="80%" y2="20%">
      <stop offset="0%" style="stop-color:#FFD700;stop-opacity:1" /> <stop offset="45%" style="stop-color:#FFCCA0;stop-opacity:1" /> <stop offset="100%" style="stop-color:#6495ED;stop-opacity:1" /> </linearGradient>
    
    <filter id="glow" x="-20%" y="-20%" width="140%" height="140%">
      <feGaussianBlur stdDeviation="2.5" result="blur"/>
      <feComposite in="SourceGraphic" in2="blur" operator="over"/>
    </filter>
  </defs>

  <path d="M256,460 C180,460 40,300 40,180 
           C40,80 120,40 180,40 
           C225,40 256,80 256,80 
           C256,80 287,40 332,40 
           C392,40 472,80 472,180 
           C472,300 332,460 256,460 Z 
           M256,380 C310,380 410,260 410,180 
           C410,110 360,90 332,90 
           C300,90 276,120 256,150 
           C236,120 212,90 180,90 
           C152,90 102,110 102,180 
           C102,260 202,380 256,380 Z" 
        fill="url(#mainGradient)" 
        filter="url(#glow)"
        stroke="none"/>
</svg>